<mxfile host="app.diagrams.net" modified="2023-11-25T17:46:08.088Z" agent="Mozilla/5.0 (Macintosh; Intel Mac OS X 10_15_7) AppleWebKit/537.36 (KHTML, like Gecko) Chrome/117.0.0.0 Safari/537.36" etag="gI6lq7gFXP-QhiVpyvaa" version="22.1.4" type="device">
  <diagram name="Sayfa -1" id="Qw63XjKKH6EkeKbqogJP">
    <mxGraphModel dx="4080" dy="2330" grid="1" gridSize="10" guides="1" tooltips="1" connect="1" arrows="1" fold="1" page="1" pageScale="1" pageWidth="3100" pageHeight="2200" math="0" shadow="0">
      <root>
        <mxCell id="0" />
        <mxCell id="1" parent="0" />
        <mxCell id="5j7AbYeZaHDb51erD1fv-82" value="" style="endArrow=classic;html=1;rounded=0;entryX=0.596;entryY=0;entryDx=0;entryDy=0;entryPerimeter=0;" edge="1" parent="1" target="5j7AbYeZaHDb51erD1fv-79">
          <mxGeometry width="50" height="50" relative="1" as="geometry">
            <mxPoint x="1780" y="730" as="sourcePoint" />
            <mxPoint x="1778" y="1530" as="targetPoint" />
            <Array as="points">
              <mxPoint x="1780" y="1280" />
              <mxPoint x="1580" y="1280" />
            </Array>
          </mxGeometry>
        </mxCell>
        <mxCell id="5j7AbYeZaHDb51erD1fv-48" style="edgeStyle=orthogonalEdgeStyle;rounded=0;orthogonalLoop=1;jettySize=auto;html=1;" edge="1" parent="1" source="5j7AbYeZaHDb51erD1fv-46" target="5j7AbYeZaHDb51erD1fv-50">
          <mxGeometry relative="1" as="geometry">
            <mxPoint x="620" y="1225" as="targetPoint" />
            <mxPoint x="400" y="1225" as="sourcePoint" />
            <Array as="points">
              <mxPoint x="410" y="1464" />
              <mxPoint x="410" y="1225" />
            </Array>
          </mxGeometry>
        </mxCell>
        <mxCell id="5j7AbYeZaHDb51erD1fv-46" value="&lt;hr&gt;" style="shape=umlActor;verticalLabelPosition=bottom;verticalAlign=top;html=1;outlineConnect=0;" vertex="1" parent="1">
          <mxGeometry x="160" y="1304" width="160" height="320" as="geometry" />
        </mxCell>
        <mxCell id="5j7AbYeZaHDb51erD1fv-50" value="&lt;font style=&quot;font-size: 23px;&quot;&gt;WebUI&lt;br&gt;Mobile&lt;/font&gt;" style="rounded=0;whiteSpace=wrap;html=1;direction=south;" vertex="1" parent="1">
          <mxGeometry x="490" y="1030" width="160" height="390" as="geometry" />
        </mxCell>
        <mxCell id="5j7AbYeZaHDb51erD1fv-71" value="" style="rounded=1;whiteSpace=wrap;html=1;" vertex="1" parent="1">
          <mxGeometry x="1680" y="1020" width="360" height="130" as="geometry" />
        </mxCell>
        <mxCell id="5j7AbYeZaHDb51erD1fv-72" value="" style="rounded=0;whiteSpace=wrap;html=1;" vertex="1" parent="1">
          <mxGeometry x="1680" y="1100" width="180" height="90" as="geometry" />
        </mxCell>
        <mxCell id="5j7AbYeZaHDb51erD1fv-73" value="" style="rounded=0;whiteSpace=wrap;html=1;" vertex="1" parent="1">
          <mxGeometry x="1860" y="1100" width="180" height="90" as="geometry" />
        </mxCell>
        <mxCell id="5j7AbYeZaHDb51erD1fv-76" value="" style="rounded=1;whiteSpace=wrap;html=1;" vertex="1" parent="1">
          <mxGeometry x="2480" y="1023" width="360" height="130" as="geometry" />
        </mxCell>
        <mxCell id="5j7AbYeZaHDb51erD1fv-74" value="" style="rounded=0;whiteSpace=wrap;html=1;" vertex="1" parent="1">
          <mxGeometry x="2480" y="1103" width="180" height="90" as="geometry" />
        </mxCell>
        <mxCell id="5j7AbYeZaHDb51erD1fv-75" value="" style="rounded=0;whiteSpace=wrap;html=1;" vertex="1" parent="1">
          <mxGeometry x="2660" y="1103" width="180" height="90" as="geometry" />
        </mxCell>
        <mxCell id="5j7AbYeZaHDb51erD1fv-77" value="" style="rhombus;whiteSpace=wrap;html=1;" vertex="1" parent="1">
          <mxGeometry x="2130" y="1304" width="270" height="270" as="geometry" />
        </mxCell>
        <mxCell id="5j7AbYeZaHDb51erD1fv-78" value="" style="strokeWidth=2;html=1;shape=mxgraph.flowchart.database;whiteSpace=wrap;" vertex="1" parent="1">
          <mxGeometry x="2600" y="1570" width="250" height="250" as="geometry" />
        </mxCell>
        <mxCell id="5j7AbYeZaHDb51erD1fv-79" value="" style="strokeWidth=2;html=1;shape=mxgraph.flowchart.database;whiteSpace=wrap;" vertex="1" parent="1">
          <mxGeometry x="1430" y="1570" width="250" height="250" as="geometry" />
        </mxCell>
        <mxCell id="5j7AbYeZaHDb51erD1fv-80" value="" style="rounded=0;whiteSpace=wrap;html=1;" vertex="1" parent="1">
          <mxGeometry x="2045" y="470" width="440" height="220" as="geometry" />
        </mxCell>
        <mxCell id="5j7AbYeZaHDb51erD1fv-81" value="" style="endArrow=classic;html=1;rounded=0;entryX=-0.001;entryY=0.567;entryDx=0;entryDy=0;entryPerimeter=0;exitX=0.321;exitY=-0.014;exitDx=0;exitDy=0;exitPerimeter=0;" edge="1" parent="1" source="5j7AbYeZaHDb51erD1fv-50" target="5j7AbYeZaHDb51erD1fv-72">
          <mxGeometry width="50" height="50" relative="1" as="geometry">
            <mxPoint x="1530" y="1050" as="sourcePoint" />
            <mxPoint x="1580" y="1000" as="targetPoint" />
          </mxGeometry>
        </mxCell>
        <mxCell id="5j7AbYeZaHDb51erD1fv-83" value="" style="endArrow=classic;html=1;rounded=0;entryX=0.615;entryY=1.06;entryDx=0;entryDy=0;entryPerimeter=0;" edge="1" parent="1" source="5j7AbYeZaHDb51erD1fv-110" target="5j7AbYeZaHDb51erD1fv-73">
          <mxGeometry width="50" height="50" relative="1" as="geometry">
            <mxPoint x="1970" y="1411.17" as="sourcePoint" />
            <mxPoint x="1971" y="1039.9999999999995" as="targetPoint" />
            <Array as="points">
              <mxPoint x="1970" y="1380" />
              <mxPoint x="1970" y="1359.17" />
            </Array>
          </mxGeometry>
        </mxCell>
        <mxCell id="5j7AbYeZaHDb51erD1fv-84" value="" style="endArrow=classic;html=1;rounded=0;entryX=0;entryY=0.228;entryDx=0;entryDy=0;entryPerimeter=0;" edge="1" parent="1" target="5j7AbYeZaHDb51erD1fv-80">
          <mxGeometry width="50" height="50" relative="1" as="geometry">
            <mxPoint x="1780" y="730" as="sourcePoint" />
            <mxPoint x="1780" y="450" as="targetPoint" />
            <Array as="points">
              <mxPoint x="1780" y="520" />
            </Array>
          </mxGeometry>
        </mxCell>
        <mxCell id="5j7AbYeZaHDb51erD1fv-85" value="" style="endArrow=classic;html=1;rounded=0;exitX=0.002;exitY=0.785;exitDx=0;exitDy=0;exitPerimeter=0;entryX=0.611;entryY=0.015;entryDx=0;entryDy=0;entryPerimeter=0;" edge="1" parent="1" source="5j7AbYeZaHDb51erD1fv-80" target="5j7AbYeZaHDb51erD1fv-71">
          <mxGeometry width="50" height="50" relative="1" as="geometry">
            <mxPoint x="1920" y="650" as="sourcePoint" />
            <mxPoint x="1900" y="690" as="targetPoint" />
            <Array as="points">
              <mxPoint x="1900" y="643" />
            </Array>
          </mxGeometry>
        </mxCell>
        <mxCell id="5j7AbYeZaHDb51erD1fv-86" value="" style="endArrow=classic;html=1;rounded=0;exitX=0.5;exitY=0;exitDx=0;exitDy=0;entryX=0.997;entryY=0.592;entryDx=0;entryDy=0;entryPerimeter=0;" edge="1" parent="1" source="5j7AbYeZaHDb51erD1fv-76" target="5j7AbYeZaHDb51erD1fv-80">
          <mxGeometry width="50" height="50" relative="1" as="geometry">
            <mxPoint x="2620" y="660" as="sourcePoint" />
            <mxPoint x="2660" y="420" as="targetPoint" />
            <Array as="points">
              <mxPoint x="2660" y="600" />
            </Array>
          </mxGeometry>
        </mxCell>
        <mxCell id="5j7AbYeZaHDb51erD1fv-87" value="" style="endArrow=classic;html=1;rounded=0;entryX=1;entryY=0.5;entryDx=0;entryDy=0;exitX=0.549;exitY=0.988;exitDx=0;exitDy=0;exitPerimeter=0;" edge="1" parent="1" source="5j7AbYeZaHDb51erD1fv-74" target="5j7AbYeZaHDb51erD1fv-77">
          <mxGeometry width="50" height="50" relative="1" as="geometry">
            <mxPoint x="2580" y="1080" as="sourcePoint" />
            <mxPoint x="2580" y="1550" as="targetPoint" />
            <Array as="points">
              <mxPoint x="2580" y="1440" />
            </Array>
          </mxGeometry>
        </mxCell>
        <mxCell id="5j7AbYeZaHDb51erD1fv-88" value="&lt;font style=&quot;font-size: 28px;&quot;&gt;POST addBook&lt;br&gt;{isbn}&lt;/font&gt;" style="text;html=1;align=center;verticalAlign=middle;resizable=0;points=[];autosize=1;strokeColor=none;fillColor=none;" vertex="1" parent="1">
          <mxGeometry x="1340" y="1038" width="220" height="80" as="geometry" />
        </mxCell>
        <mxCell id="5j7AbYeZaHDb51erD1fv-89" value="&lt;span style=&quot;font-size: 28px;&quot;&gt;discovery&lt;br&gt;book-service&lt;br&gt;&lt;/span&gt;" style="text;html=1;align=center;verticalAlign=middle;resizable=0;points=[];autosize=1;strokeColor=none;fillColor=none;" vertex="1" parent="1">
          <mxGeometry x="1570" y="600" width="180" height="80" as="geometry" />
        </mxCell>
        <mxCell id="5j7AbYeZaHDb51erD1fv-92" value="&lt;span style=&quot;font-size: 28px;&quot;&gt;localhost:8080&lt;br&gt;&lt;/span&gt;" style="text;html=1;align=center;verticalAlign=middle;resizable=0;points=[];autosize=1;strokeColor=none;fillColor=none;" vertex="1" parent="1">
          <mxGeometry x="1900" y="725" width="200" height="50" as="geometry" />
        </mxCell>
        <mxCell id="5j7AbYeZaHDb51erD1fv-93" value="&lt;font style=&quot;font-size: 44px;&quot;&gt;EurekaServer&lt;/font&gt;" style="text;html=1;align=center;verticalAlign=middle;resizable=0;points=[];autosize=1;strokeColor=none;fillColor=none;" vertex="1" parent="1">
          <mxGeometry x="2120" y="545" width="290" height="70" as="geometry" />
        </mxCell>
        <mxCell id="5j7AbYeZaHDb51erD1fv-94" value="&lt;font style=&quot;font-size: 33px;&quot;&gt;LibraryService&lt;/font&gt;" style="text;html=1;align=center;verticalAlign=middle;resizable=0;points=[];autosize=1;strokeColor=none;fillColor=none;" vertex="1" parent="1">
          <mxGeometry x="1745" y="1040" width="230" height="50" as="geometry" />
        </mxCell>
        <mxCell id="5j7AbYeZaHDb51erD1fv-95" value="&lt;font style=&quot;font-size: 27px;&quot;&gt;LibraryAPI&lt;/font&gt;" style="text;html=1;align=center;verticalAlign=middle;resizable=0;points=[];autosize=1;strokeColor=none;fillColor=none;" vertex="1" parent="1">
          <mxGeometry x="1695" y="1120" width="150" height="50" as="geometry" />
        </mxCell>
        <mxCell id="5j7AbYeZaHDb51erD1fv-96" value="&lt;font style=&quot;font-size: 23px;&quot;&gt;EurekaClient&lt;/font&gt;" style="text;html=1;align=center;verticalAlign=middle;resizable=0;points=[];autosize=1;strokeColor=none;fillColor=none;" vertex="1" parent="1">
          <mxGeometry x="1870" y="1125" width="160" height="40" as="geometry" />
        </mxCell>
        <mxCell id="5j7AbYeZaHDb51erD1fv-97" value="&lt;font style=&quot;font-size: 33px;&quot;&gt;BookService&lt;/font&gt;" style="text;html=1;align=center;verticalAlign=middle;resizable=0;points=[];autosize=1;strokeColor=none;fillColor=none;" vertex="1" parent="1">
          <mxGeometry x="2555" y="1038" width="210" height="50" as="geometry" />
        </mxCell>
        <mxCell id="5j7AbYeZaHDb51erD1fv-99" value="&lt;font style=&quot;font-size: 27px;&quot;&gt;BookAPI&lt;/font&gt;" style="text;html=1;align=center;verticalAlign=middle;resizable=0;points=[];autosize=1;strokeColor=none;fillColor=none;" vertex="1" parent="1">
          <mxGeometry x="2505" y="1123" width="130" height="50" as="geometry" />
        </mxCell>
        <mxCell id="5j7AbYeZaHDb51erD1fv-100" value="&lt;font style=&quot;font-size: 23px;&quot;&gt;EurekaClient&lt;/font&gt;" style="text;html=1;align=center;verticalAlign=middle;resizable=0;points=[];autosize=1;strokeColor=none;fillColor=none;" vertex="1" parent="1">
          <mxGeometry x="2670" y="1128" width="160" height="40" as="geometry" />
        </mxCell>
        <mxCell id="5j7AbYeZaHDb51erD1fv-102" value="&lt;font style=&quot;font-size: 27px;&quot;&gt;LibraryDB&lt;/font&gt;" style="text;html=1;align=center;verticalAlign=middle;resizable=0;points=[];autosize=1;strokeColor=none;fillColor=none;" vertex="1" parent="1">
          <mxGeometry x="1485" y="1700" width="140" height="50" as="geometry" />
        </mxCell>
        <mxCell id="5j7AbYeZaHDb51erD1fv-103" value="&lt;font style=&quot;font-size: 27px;&quot;&gt;BookDB&lt;/font&gt;" style="text;html=1;align=center;verticalAlign=middle;resizable=0;points=[];autosize=1;strokeColor=none;fillColor=none;" vertex="1" parent="1">
          <mxGeometry x="2665" y="1700" width="120" height="50" as="geometry" />
        </mxCell>
        <mxCell id="5j7AbYeZaHDb51erD1fv-104" value="&lt;font style=&quot;font-size: 27px;&quot;&gt;isIsbnExist&lt;/font&gt;" style="text;html=1;align=center;verticalAlign=middle;resizable=0;points=[];autosize=1;strokeColor=none;fillColor=none;" vertex="1" parent="1">
          <mxGeometry x="2190" y="1414" width="150" height="50" as="geometry" />
        </mxCell>
        <mxCell id="5j7AbYeZaHDb51erD1fv-105" value="&lt;font style=&quot;font-size: 95px;&quot;&gt;V4 Book.Online&lt;/font&gt;" style="text;html=1;align=center;verticalAlign=middle;resizable=0;points=[];autosize=1;strokeColor=none;fillColor=none;" vertex="1" parent="1">
          <mxGeometry x="1210" y="65" width="680" height="130" as="geometry" />
        </mxCell>
        <mxCell id="5j7AbYeZaHDb51erD1fv-106" value="" style="endArrow=classic;html=1;rounded=0;exitX=0.998;exitY=0.557;exitDx=0;exitDy=0;exitPerimeter=0;entryX=0;entryY=0.5;entryDx=0;entryDy=0;" edge="1" parent="1" source="5j7AbYeZaHDb51erD1fv-73" target="5j7AbYeZaHDb51erD1fv-74">
          <mxGeometry width="50" height="50" relative="1" as="geometry">
            <mxPoint x="2080" y="1000" as="sourcePoint" />
            <mxPoint x="2220" y="1000" as="targetPoint" />
          </mxGeometry>
        </mxCell>
        <mxCell id="5j7AbYeZaHDb51erD1fv-107" value="&lt;font style=&quot;font-size: 30px;&quot;&gt;FeignClient&lt;br&gt;http rest call&lt;/font&gt;" style="text;html=1;align=center;verticalAlign=middle;resizable=0;points=[];autosize=1;strokeColor=none;fillColor=none;" vertex="1" parent="1">
          <mxGeometry x="2150" y="880" width="190" height="90" as="geometry" />
        </mxCell>
        <mxCell id="5j7AbYeZaHDb51erD1fv-108" value="&lt;font style=&quot;font-size: 20px;&quot;&gt;book-service/book/{isbn}&lt;/font&gt;" style="text;html=1;align=center;verticalAlign=middle;resizable=0;points=[];autosize=1;strokeColor=none;fillColor=none;" vertex="1" parent="1">
          <mxGeometry x="2125" y="1020" width="240" height="40" as="geometry" />
        </mxCell>
        <mxCell id="5j7AbYeZaHDb51erD1fv-109" value="&lt;font style=&quot;font-size: 25px;&quot;&gt;registry&lt;br&gt;book-service&lt;br&gt;localhost:8080&lt;/font&gt;" style="text;html=1;align=center;verticalAlign=middle;resizable=0;points=[];autosize=1;strokeColor=none;fillColor=none;" vertex="1" parent="1">
          <mxGeometry x="2710" y="625" width="180" height="100" as="geometry" />
        </mxCell>
        <mxCell id="5j7AbYeZaHDb51erD1fv-110" value="&lt;font style=&quot;font-size: 20px;&quot;&gt;false&lt;/font&gt;" style="text;html=1;align=center;verticalAlign=middle;resizable=0;points=[];autosize=1;strokeColor=none;fillColor=none;" vertex="1" parent="1">
          <mxGeometry x="2000" y="1360" width="70" height="40" as="geometry" />
        </mxCell>
        <mxCell id="5j7AbYeZaHDb51erD1fv-111" value="" style="endArrow=none;html=1;rounded=0;entryX=0.214;entryY=0.28;entryDx=0;entryDy=0;entryPerimeter=0;" edge="1" parent="1" source="5j7AbYeZaHDb51erD1fv-110" target="5j7AbYeZaHDb51erD1fv-77">
          <mxGeometry width="50" height="50" relative="1" as="geometry">
            <mxPoint x="2067.9700000000003" y="1379.1200000000001" as="sourcePoint" />
            <mxPoint x="2185.08" y="1380.88" as="targetPoint" />
          </mxGeometry>
        </mxCell>
        <mxCell id="5j7AbYeZaHDb51erD1fv-112" value="" style="endArrow=none;html=1;rounded=0;entryX=0.214;entryY=0.28;entryDx=0;entryDy=0;entryPerimeter=0;" edge="1" parent="1">
          <mxGeometry width="50" height="50" relative="1" as="geometry">
            <mxPoint x="1980" y="1520" as="sourcePoint" />
            <mxPoint x="2208" y="1520.4" as="targetPoint" />
          </mxGeometry>
        </mxCell>
        <mxCell id="5j7AbYeZaHDb51erD1fv-113" value="&lt;font style=&quot;font-size: 20px;&quot;&gt;true&lt;/font&gt;" style="text;html=1;align=center;verticalAlign=middle;resizable=0;points=[];autosize=1;strokeColor=none;fillColor=none;" vertex="1" parent="1">
          <mxGeometry x="1919" y="1500" width="60" height="40" as="geometry" />
        </mxCell>
        <mxCell id="5j7AbYeZaHDb51erD1fv-114" value="" style="endArrow=classic;html=1;rounded=0;entryX=0.222;entryY=1.003;entryDx=0;entryDy=0;entryPerimeter=0;" edge="1" parent="1" source="5j7AbYeZaHDb51erD1fv-113" target="5j7AbYeZaHDb51erD1fv-73">
          <mxGeometry width="50" height="50" relative="1" as="geometry">
            <mxPoint x="1919" y="1520" as="sourcePoint" />
            <mxPoint x="1899" y="1210" as="targetPoint" />
            <Array as="points">
              <mxPoint x="1899" y="1520" />
            </Array>
          </mxGeometry>
        </mxCell>
        <mxCell id="5j7AbYeZaHDb51erD1fv-116" value="&lt;font style=&quot;font-size: 25px;&quot;&gt;BookNotFoundException&lt;/font&gt;" style="text;html=1;align=center;verticalAlign=middle;resizable=0;points=[];autosize=1;strokeColor=none;fillColor=none;" vertex="1" parent="1">
          <mxGeometry x="1979" y="1230" width="300" height="40" as="geometry" />
        </mxCell>
        <mxCell id="5j7AbYeZaHDb51erD1fv-135" value="" style="rounded=1;whiteSpace=wrap;html=1;" vertex="1" parent="1">
          <mxGeometry x="1680" y="780" width="360" height="130" as="geometry" />
        </mxCell>
        <mxCell id="5j7AbYeZaHDb51erD1fv-136" value="" style="rounded=0;whiteSpace=wrap;html=1;" vertex="1" parent="1">
          <mxGeometry x="1680" y="860" width="180" height="90" as="geometry" />
        </mxCell>
        <mxCell id="5j7AbYeZaHDb51erD1fv-137" value="" style="rounded=0;whiteSpace=wrap;html=1;" vertex="1" parent="1">
          <mxGeometry x="1860" y="860" width="180" height="90" as="geometry" />
        </mxCell>
        <mxCell id="5j7AbYeZaHDb51erD1fv-138" value="&lt;font style=&quot;font-size: 33px;&quot;&gt;LibraryService&lt;/font&gt;" style="text;html=1;align=center;verticalAlign=middle;resizable=0;points=[];autosize=1;strokeColor=none;fillColor=none;" vertex="1" parent="1">
          <mxGeometry x="1745" y="800" width="230" height="50" as="geometry" />
        </mxCell>
        <mxCell id="5j7AbYeZaHDb51erD1fv-139" value="&lt;font style=&quot;font-size: 27px;&quot;&gt;LibraryAPI&lt;/font&gt;" style="text;html=1;align=center;verticalAlign=middle;resizable=0;points=[];autosize=1;strokeColor=none;fillColor=none;" vertex="1" parent="1">
          <mxGeometry x="1695" y="880" width="150" height="50" as="geometry" />
        </mxCell>
        <mxCell id="5j7AbYeZaHDb51erD1fv-140" value="&lt;font style=&quot;font-size: 23px;&quot;&gt;EurekaClient&lt;/font&gt;" style="text;html=1;align=center;verticalAlign=middle;resizable=0;points=[];autosize=1;strokeColor=none;fillColor=none;" vertex="1" parent="1">
          <mxGeometry x="1870" y="885" width="160" height="40" as="geometry" />
        </mxCell>
        <mxCell id="5j7AbYeZaHDb51erD1fv-142" value="&lt;font style=&quot;font-size: 30px;&quot;&gt;8081&lt;/font&gt;" style="text;html=1;align=center;verticalAlign=middle;resizable=0;points=[];autosize=1;strokeColor=none;fillColor=none;" vertex="1" parent="1">
          <mxGeometry x="2045" y="820" width="90" height="50" as="geometry" />
        </mxCell>
        <mxCell id="5j7AbYeZaHDb51erD1fv-143" value="&lt;font style=&quot;font-size: 30px;&quot;&gt;8080&lt;/font&gt;" style="text;html=1;align=center;verticalAlign=middle;resizable=0;points=[];autosize=1;strokeColor=none;fillColor=none;" vertex="1" parent="1">
          <mxGeometry x="2045" y="1078" width="90" height="50" as="geometry" />
        </mxCell>
        <mxCell id="5j7AbYeZaHDb51erD1fv-144" value="&lt;font style=&quot;font-size: 28px;&quot;&gt;API&lt;br&gt;GATEWAY&lt;/font&gt;" style="rounded=0;whiteSpace=wrap;html=1;direction=south;" vertex="1" parent="1">
          <mxGeometry x="1040" y="925" width="160" height="390" as="geometry" />
        </mxCell>
        <mxCell id="5j7AbYeZaHDb51erD1fv-145" value="&lt;hr&gt;" style="shape=umlActor;verticalLabelPosition=bottom;verticalAlign=top;html=1;outlineConnect=0;" vertex="1" parent="1">
          <mxGeometry x="160" y="853" width="160" height="320" as="geometry" />
        </mxCell>
        <mxCell id="5j7AbYeZaHDb51erD1fv-146" value="" style="endArrow=classic;html=1;rounded=0;entryX=0.385;entryY=1.006;entryDx=0;entryDy=0;entryPerimeter=0;" edge="1" parent="1" source="5j7AbYeZaHDb51erD1fv-145" target="5j7AbYeZaHDb51erD1fv-50">
          <mxGeometry width="50" height="50" relative="1" as="geometry">
            <mxPoint x="350" y="1060" as="sourcePoint" />
            <mxPoint x="400" y="1010" as="targetPoint" />
            <Array as="points">
              <mxPoint x="410" y="1013" />
              <mxPoint x="410" y="1180" />
            </Array>
          </mxGeometry>
        </mxCell>
        <mxCell id="5j7AbYeZaHDb51erD1fv-147" value="" style="endArrow=none;html=1;rounded=0;exitX=0.591;exitY=-0.015;exitDx=0;exitDy=0;exitPerimeter=0;entryX=0.863;entryY=0.989;entryDx=0;entryDy=0;entryPerimeter=0;" edge="1" parent="1" source="5j7AbYeZaHDb51erD1fv-50" target="5j7AbYeZaHDb51erD1fv-144">
          <mxGeometry width="50" height="50" relative="1" as="geometry">
            <mxPoint x="1130" y="840" as="sourcePoint" />
            <mxPoint x="1180" y="790" as="targetPoint" />
          </mxGeometry>
        </mxCell>
        <mxCell id="5j7AbYeZaHDb51erD1fv-148" value="" style="endArrow=classic;html=1;rounded=0;exitX=0.038;exitY=-0.011;exitDx=0;exitDy=0;exitPerimeter=0;entryX=0;entryY=0.887;entryDx=0;entryDy=0;entryPerimeter=0;" edge="1" parent="1" source="5j7AbYeZaHDb51erD1fv-144" target="5j7AbYeZaHDb51erD1fv-136">
          <mxGeometry width="50" height="50" relative="1" as="geometry">
            <mxPoint x="1340" y="950" as="sourcePoint" />
            <mxPoint x="1390" y="900" as="targetPoint" />
          </mxGeometry>
        </mxCell>
        <mxCell id="5j7AbYeZaHDb51erD1fv-149" value="&lt;font style=&quot;font-size: 30px;&quot;&gt;AUTH SERVER&lt;/font&gt;" style="rounded=0;whiteSpace=wrap;html=1;" vertex="1" parent="1">
          <mxGeometry x="1170" y="1420" width="260" height="120" as="geometry" />
        </mxCell>
        <mxCell id="5j7AbYeZaHDb51erD1fv-150" value="&lt;font style=&quot;font-size: 35px;&quot;&gt;USERDB&lt;/font&gt;" style="strokeWidth=2;html=1;shape=mxgraph.flowchart.database;whiteSpace=wrap;" vertex="1" parent="1">
          <mxGeometry x="730" y="1510" width="240" height="250" as="geometry" />
        </mxCell>
        <mxCell id="5j7AbYeZaHDb51erD1fv-151" value="" style="endArrow=classic;html=1;rounded=0;entryX=0.447;entryY=0.042;entryDx=0;entryDy=0;entryPerimeter=0;" edge="1" parent="1" target="5j7AbYeZaHDb51erD1fv-152">
          <mxGeometry width="50" height="50" relative="1" as="geometry">
            <mxPoint x="1090" y="1320" as="sourcePoint" />
            <mxPoint x="1090" y="1700" as="targetPoint" />
          </mxGeometry>
        </mxCell>
        <mxCell id="5j7AbYeZaHDb51erD1fv-152" value="&lt;font style=&quot;font-size: 30px;&quot;&gt;SECURTY LAYER&lt;/font&gt;" style="text;html=1;align=center;verticalAlign=middle;resizable=0;points=[];autosize=1;strokeColor=none;fillColor=none;" vertex="1" parent="1">
          <mxGeometry x="970" y="1790" width="270" height="50" as="geometry" />
        </mxCell>
        <mxCell id="5j7AbYeZaHDb51erD1fv-153" value="" style="endArrow=classic;html=1;rounded=0;exitX=1;exitY=1;exitDx=0;exitDy=0;entryX=0.5;entryY=0;entryDx=0;entryDy=0;entryPerimeter=0;" edge="1" parent="1" source="5j7AbYeZaHDb51erD1fv-144" target="5j7AbYeZaHDb51erD1fv-150">
          <mxGeometry width="50" height="50" relative="1" as="geometry">
            <mxPoint x="940" y="1430" as="sourcePoint" />
            <mxPoint x="990" y="1380" as="targetPoint" />
            <Array as="points">
              <mxPoint x="1040" y="1420" />
              <mxPoint x="950" y="1420" />
              <mxPoint x="850" y="1420" />
            </Array>
          </mxGeometry>
        </mxCell>
        <mxCell id="5j7AbYeZaHDb51erD1fv-154" value="" style="endArrow=classic;html=1;rounded=0;exitX=1;exitY=0.25;exitDx=0;exitDy=0;entryX=0.25;entryY=0;entryDx=0;entryDy=0;" edge="1" parent="1" source="5j7AbYeZaHDb51erD1fv-144" target="5j7AbYeZaHDb51erD1fv-149">
          <mxGeometry width="50" height="50" relative="1" as="geometry">
            <mxPoint x="1290" y="1390" as="sourcePoint" />
            <mxPoint x="1340" y="1340" as="targetPoint" />
            <Array as="points">
              <mxPoint x="1160" y="1380" />
              <mxPoint x="1235" y="1380" />
            </Array>
          </mxGeometry>
        </mxCell>
        <mxCell id="5j7AbYeZaHDb51erD1fv-155" value="&lt;font style=&quot;font-size: 25px;&quot;&gt;BookDto&lt;/font&gt;" style="text;html=1;align=center;verticalAlign=middle;resizable=0;points=[];autosize=1;strokeColor=none;fillColor=none;" vertex="1" parent="1">
          <mxGeometry x="1870" y="1553" width="120" height="40" as="geometry" />
        </mxCell>
        <mxCell id="5j7AbYeZaHDb51erD1fv-156" value="" style="endArrow=classic;html=1;rounded=0;exitX=0;exitY=0.75;exitDx=0;exitDy=0;entryX=0.479;entryY=1.02;entryDx=0;entryDy=0;entryPerimeter=0;" edge="1" parent="1" source="5j7AbYeZaHDb51erD1fv-144" target="5j7AbYeZaHDb51erD1fv-159">
          <mxGeometry width="50" height="50" relative="1" as="geometry">
            <mxPoint x="1050" y="770" as="sourcePoint" />
            <mxPoint x="800" y="400" as="targetPoint" />
            <Array as="points">
              <mxPoint x="1080" y="640" />
              <mxPoint x="800" y="640" />
            </Array>
          </mxGeometry>
        </mxCell>
        <mxCell id="5j7AbYeZaHDb51erD1fv-157" value="" style="endArrow=classic;html=1;rounded=0;exitX=0;exitY=0.5;exitDx=0;exitDy=0;entryX=0.501;entryY=1.02;entryDx=0;entryDy=0;entryPerimeter=0;" edge="1" parent="1" source="5j7AbYeZaHDb51erD1fv-144" target="5j7AbYeZaHDb51erD1fv-160">
          <mxGeometry width="50" height="50" relative="1" as="geometry">
            <mxPoint x="1130" y="860" as="sourcePoint" />
            <mxPoint x="1120" y="400" as="targetPoint" />
          </mxGeometry>
        </mxCell>
        <mxCell id="5j7AbYeZaHDb51erD1fv-158" value="" style="endArrow=classic;html=1;rounded=0;entryX=0.501;entryY=1.043;entryDx=0;entryDy=0;entryPerimeter=0;" edge="1" parent="1" target="5j7AbYeZaHDb51erD1fv-161">
          <mxGeometry width="50" height="50" relative="1" as="geometry">
            <mxPoint x="1160" y="920" as="sourcePoint" />
            <mxPoint x="1440" y="400" as="targetPoint" />
            <Array as="points">
              <mxPoint x="1160" y="640" />
              <mxPoint x="1440" y="640" />
            </Array>
          </mxGeometry>
        </mxCell>
        <mxCell id="5j7AbYeZaHDb51erD1fv-159" value="&lt;font style=&quot;font-size: 27px;&quot;&gt;WEB INTERCEPTOR&lt;/font&gt;" style="text;html=1;align=center;verticalAlign=middle;resizable=0;points=[];autosize=1;strokeColor=none;fillColor=none;" vertex="1" parent="1">
          <mxGeometry x="660" y="340" width="290" height="50" as="geometry" />
        </mxCell>
        <mxCell id="5j7AbYeZaHDb51erD1fv-160" value="&lt;font style=&quot;font-size: 27px;&quot;&gt;LOAD BALANCING&lt;/font&gt;" style="text;html=1;align=center;verticalAlign=middle;resizable=0;points=[];autosize=1;strokeColor=none;fillColor=none;" vertex="1" parent="1">
          <mxGeometry x="990" y="340" width="260" height="50" as="geometry" />
        </mxCell>
        <mxCell id="5j7AbYeZaHDb51erD1fv-161" value="&lt;font style=&quot;font-size: 27px;&quot;&gt;WEB FILTER&lt;/font&gt;" style="text;html=1;align=center;verticalAlign=middle;resizable=0;points=[];autosize=1;strokeColor=none;fillColor=none;" vertex="1" parent="1">
          <mxGeometry x="1350" y="340" width="180" height="50" as="geometry" />
        </mxCell>
      </root>
    </mxGraphModel>
  </diagram>
</mxfile>
